<?xml version="1.0" encoding="UTF-8"?>
<svg xmlns="http://www.w3.org/2000/svg" width="29" height="29" viewBox="0 0 29 29" fill="none">
  <mask id="mask0_396_15353" style="mask-type:alpha" maskUnits="userSpaceOnUse" x="0" y="0" width="29" height="29">
    <circle cx="14.5" cy="14.5" r="14.5" fill="#D9D9D9"></circle>
  </mask>
  <g mask="url(#mask0_396_15353)">
    <path d="M31.499 -0.925293H-1.23401V9.47152H31.499V-0.925293Z" fill="#6CA8FF"></path>
    <path d="M31.4991 9.47119H-1.23389V19.868H31.4991V9.47119Z" fill="white"></path>
    <path d="M31.4991 19.8682H-1.23389V30.265H31.4991V19.8682Z" fill="#6CA8FF"></path>
    <path d="M14.5925 16.9683C15.8534 16.9683 16.8755 15.9462 16.8755 14.6853C16.8755 13.4245 15.8534 12.4023 14.5925 12.4023C13.3317 12.4023 12.3096 13.4245 12.3096 14.6853C12.3096 15.9462 13.3317 16.9683 14.5925 16.9683Z" fill="#DD8507"></path>
    <path d="M14.3457 13.2662L14.5617 9.87256H14.6234L14.8393 13.2662H14.3457Z" fill="#DD8507"></path>
    <path d="M14.8393 16.0732L14.6234 19.4977H14.5617L14.3457 16.0732H14.8393Z" fill="#DD8507"></path>
    <path d="M16.0117 14.4385L19.4053 14.6544V14.7161L16.0117 14.9012V14.4385Z" fill="#DD8507"></path>
    <path d="M13.1734 14.9012L9.77979 14.7161V14.6544L13.1734 14.4385V14.9012Z" fill="#DD8507"></path>
    <path d="M15.4257 13.5129L17.9863 11.2607L18.0171 11.2916L15.765 13.8522L15.4257 13.5129Z" fill="#DD8507"></path>
    <path d="M13.7597 15.8266L11.1991 18.1096L11.1682 18.0479L13.4203 15.5181L13.7597 15.8266Z" fill="#DD8507"></path>
    <path d="M15.765 15.5181L18.0171 18.0479L17.9863 18.1096L15.4257 15.8266L15.765 15.5181Z" fill="#DD8507"></path>
    <path d="M13.4202 13.8522L11.1681 11.2916L11.1989 11.2607L13.7596 13.5129L13.4202 13.8522Z" fill="#DD8507"></path>
    <path d="M14.9319 13.2969L16.4436 10.2427H16.5053L15.3638 13.482L14.9319 13.2969Z" fill="#DD8507"></path>
    <path d="M14.2531 16.0733L12.7414 19.1275L12.7106 19.0967L13.8212 15.8882L14.2531 16.0733Z" fill="#DD8507"></path>
    <path d="M15.9806 14.9937L19.0349 16.5362V16.5671L15.7955 15.4564L15.9806 14.9937Z" fill="#DD8507"></path>
    <path d="M13.2042 14.3459L10.1499 12.8342L10.1808 12.7725L13.3893 13.9139L13.2042 14.3459Z" fill="#DD8507"></path>
    <path d="M15.8267 13.9138L19.0352 12.834L19.066 12.8957L15.9809 14.3765L15.8267 13.9138Z" fill="#DD8507"></path>
    <path d="M13.3894 15.4256L10.15 16.5054L10.1191 16.4745L13.2042 14.9937L13.3894 15.4256Z" fill="#DD8507"></path>
    <path d="M15.3329 15.8882L16.4436 19.1275L16.3819 19.1584L14.901 16.0733L15.3329 15.8882Z" fill="#DD8507"></path>
    <path d="M13.8521 13.4513L12.7723 10.2119H12.8032L14.284 13.297L13.8521 13.4513Z" fill="#DD8507"></path>
    <path d="M14.6542 13.2351L15.518 9.93408L15.5797 9.96493L15.1169 13.3277L14.6542 13.2351Z" fill="#DD8507"></path>
    <path d="M14.5615 16.1043L13.6668 19.4053H13.636L14.0988 16.0117L14.5615 16.1043Z" fill="#DD8507"></path>
    <path d="M16.0117 14.7158L19.3128 15.6105V15.6414L15.9192 15.1786L16.0117 14.7158Z" fill="#DD8507"></path>
    <path d="M13.1734 14.6233L9.87231 13.7595V13.6978L13.2659 14.1605L13.1734 14.6233Z" fill="#DD8507"></path>
    <path d="M15.6412 13.6979L18.6029 11.9702L18.6338 12.0319L15.888 14.0989L15.6412 13.6979Z" fill="#DD8507"></path>
    <path d="M13.5434 15.6417L10.6125 17.3694L10.5817 17.3077L13.2966 15.2715L13.5434 15.6417Z" fill="#DD8507"></path>
    <path d="M15.5799 15.7031L17.2767 18.6648L17.2459 18.6957L15.1788 15.9808L15.5799 15.7031Z" fill="#DD8507"></path>
    <path d="M13.6053 13.6361L11.9084 10.6744L11.9393 10.6436L14.0063 13.3584L13.6053 13.6361Z" fill="#DD8507"></path>
    <path d="M15.2096 13.3892L17.2766 10.6743L17.3383 10.7052L15.5798 13.636L15.2096 13.3892Z" fill="#DD8507"></path>
    <path d="M14.0065 15.9808L11.9086 18.6648L11.8469 18.634L13.6054 15.7031L14.0065 15.9808Z" fill="#DD8507"></path>
    <path d="M15.8883 15.2715L18.6032 17.3694L18.5723 17.4002L15.6415 15.6725L15.8883 15.2715Z" fill="#DD8507"></path>
    <path d="M13.2968 14.0682L10.6128 11.9703L10.6436 11.9395L13.5745 13.698L13.2968 14.0682Z" fill="#DD8507"></path>
    <path d="M15.95 14.1917L19.3127 13.7598L19.3436 13.8215L16.0117 14.6544L15.95 14.1917Z" fill="#DD8507"></path>
    <path d="M13.2659 15.1786L9.87231 15.6105V15.5488L13.1734 14.7158L13.2659 15.1786Z" fill="#DD8507"></path>
    <path d="M15.0862 16.0117L15.5181 19.4053H15.4564L14.6234 16.1043L15.0862 16.0117Z" fill="#DD8507"></path>
    <path d="M14.0989 13.3277L13.667 9.93408H13.7287L14.5617 13.2351L14.0989 13.3277Z" fill="#DD8507"></path>
    <path d="M16.351 14.6853C16.351 15.6725 15.5489 16.4438 14.5925 16.4438C13.6053 16.4438 12.834 15.6417 12.834 14.6853C12.834 13.698 13.6361 12.9268 14.5925 12.9268C15.5797 12.9268 16.351 13.698 16.351 14.6853Z" fill="#FFD41F"></path>
  </g>
</svg>
