<?xml version="1.0" encoding="UTF-8"?>
<svg xmlns="http://www.w3.org/2000/svg" width="29" height="29" viewBox="0 0 29 29" fill="none">
  <mask id="mask0_396_15432" style="mask-type:alpha" maskUnits="userSpaceOnUse" x="0" y="0" width="29" height="29">
    <circle cx="14.5" cy="14.5" r="14.5" fill="#D9D9D9"></circle>
  </mask>
  <g mask="url(#mask0_396_15432)">
    <path d="M31.6632 -0.295898H-2.66333V29.2959H31.6632V-0.295898Z" fill="#34A53C"></path>
    <path d="M14.6479 5.17871L1.71631 14.5001L14.6479 23.8512L27.6092 14.5001L14.6479 5.17871Z" fill="#FFD41F"></path>
    <path d="M20.3988 15.4888C20.9165 12.2782 18.7335 9.2557 15.5229 8.73794C12.3122 8.22018 9.28973 10.4032 8.77197 13.6138C8.2542 16.8245 10.4372 19.847 13.6479 20.3647C16.8585 20.8825 19.881 18.6995 20.3988 15.4888Z" fill="#3358AA"></path>
    <path d="M20.3887 13.494C17.9918 11.6002 13.1091 10.2389 9.97238 10.89C9.5285 11.4522 9.20299 12.0736 8.99585 12.7543C9.08463 12.6951 9.14381 12.6359 9.23258 12.5767C11.5407 11.2451 18.051 12.6951 20.0928 15.0624C20.2407 15.2104 20.3295 15.3583 20.4183 15.5063C20.4775 15.1808 20.5071 14.8849 20.5071 14.5594C20.4775 14.1747 20.4479 13.8491 20.3887 13.494Z" fill="white"></path>
  </g>
</svg>
