<?xml version="1.0" encoding="UTF-8"?>
<svg xmlns="http://www.w3.org/2000/svg" width="198" height="186" viewBox="0 0 198 186" fill="none">
  <path opacity="0.2" d="M28 14.2063C28 7.60315 34.8744 3.24803 40.8448 6.06888L79.8448 24.4956C82.9923 25.9827 85 29.1518 85 32.633V97.7937C85 104.397 78.1256 108.752 72.1552 105.931L33.1552 87.5044C30.0077 86.0173 28 82.8482 28 79.367V14.2063Z" fill="#9618B7"></path>
  <path opacity="0.4" d="M122 88.2063C122 81.6032 128.874 77.248 134.845 80.0689L173.845 98.4956C176.992 99.9827 179 103.152 179 106.633V171.794C179 178.397 172.126 182.752 166.155 179.931L127.155 161.504C124.008 160.017 122 156.848 122 153.367V88.2063Z" fill="#300853"></path>
  <path opacity="0.3" d="M150.5 80.1218C150.5 73.9054 156.955 69.7917 162.59 72.4169L192.59 86.3936C195.585 87.789 197.5 90.794 197.5 94.0984V144.878C197.5 151.095 191.045 155.208 185.41 152.583L155.41 138.606C152.415 137.211 150.5 134.206 150.5 130.902V80.1218Z" stroke="#92E0FF"></path>
  <path opacity="0.9" d="M0.5 59.2211C0.5 52.9813 6.99912 48.8682 12.6384 51.5392L27.6384 58.6436C30.6072 60.0497 32.5 63.0406 32.5 66.3255V95.7789C32.5 102.019 26.0009 106.132 20.3616 103.461L5.36161 96.3564C2.39282 94.9503 0.5 91.9594 0.5 88.6745V59.2211Z" stroke="#92E0FF" stroke-opacity="0.4"></path>
  <g clip-path="url(#clip0_662_9606)">
    <path d="M126.125 151.887H96.875" stroke="#92E0FF" stroke-width="2" stroke-miterlimit="10"></path>
    <path d="M126.273 62.8763H109.949C109.506 62.8763 109.136 62.5054 109.136 62.0604V46.1868L126.273 62.8763Z" fill="#415691"></path>
    <path d="M52.0398 66.511V46.1127H107.955C108.693 46.1127 109.432 46.4094 109.949 46.9286L125.386 62.2088C125.903 62.7281 126.273 63.4698 126.273 64.2857V100.929" stroke="#92E0FF" stroke-width="2" stroke-miterlimit="10"></path>
    <path d="M41.1079 62.2829V151.813H100.125C101.824 151.813 103.227 150.404 103.227 148.698V114.132C103.227 111.684 103.966 109.31 105.369 107.308L114.307 94.6978C115.71 92.695 116.449 90.3214 116.449 87.8736V69.4038C116.449 68.0687 115.341 66.956 114.011 66.956H45.7613C43.1761 67.0302 41.1079 64.8791 41.1079 62.2829ZM41.1079 62.2829C41.1079 59.6868 43.1761 57.6099 45.7613 57.6099H52.0397" stroke="#92E0FF" stroke-width="2" stroke-miterlimit="10"></path>
    <path d="M125.83 62.8763H109.506C109.063 62.8763 108.693 62.5054 108.693 62.0604V46.1868" stroke="#92E0FF" stroke-width="2" stroke-miterlimit="10"></path>
    <path d="M138.608 124.591V113.909C138.608 106.863 132.92 101.077 125.83 101.077C118.813 101.077 113.051 106.788 113.051 113.909V124.591" stroke="#92E0FF" stroke-width="2" stroke-miterlimit="10"></path>
    <path d="M119.477 124.591V113.687C119.477 110.126 122.358 107.308 125.83 107.308C129.375 107.308 132.182 110.201 132.182 113.687V124.665" stroke="#92E0FF" stroke-width="2" stroke-miterlimit="10"></path>
    <path d="M66.6648 89.5797C66.6648 89.5797 77.1534 85.6484 84.5398 94.4011" stroke="#92E0FF" stroke-width="2" stroke-miterlimit="10" stroke-linecap="round"></path>
    <path d="M88.3068 104.786C88.3068 104.786 85.7954 98.11 78.3352 94.6979" stroke="#92E0FF" stroke-width="2" stroke-miterlimit="10" stroke-linecap="round"></path>
    <path d="M72.5739 93.7335C72.5739 93.7335 60.8296 94.6236 63.3409 109.459C67.1818 124.071 56.9148 125.926 56.9148 125.926" stroke="#92E0FF" stroke-width="2" stroke-miterlimit="10" stroke-linecap="round"></path>
    <path d="M61.3466 92.8434C61.3466 92.8434 56.3239 96.8489 56.1023 103.97C55.8807 111.091 56.1023 116.06 56.1023 116.06" stroke="#92E0FF" stroke-width="2" stroke-miterlimit="10" stroke-linecap="round"></path>
    <path d="M68.8068 109.459C68.8068 109.459 68.2898 98.7775 78.4091 101.374" stroke="#92E0FF" stroke-width="2" stroke-miterlimit="10" stroke-linecap="round"></path>
    <path d="M83.3579 105.008C83.3579 105.008 90.5966 111.462 87.7897 124.739C86.0909 131.118 81.6591 134.085 81.6591 134.085" stroke="#92E0FF" stroke-width="2" stroke-miterlimit="10" stroke-linecap="round"></path>
    <path d="M82.6193 121.253C82.6193 121.253 81.7329 130.599 73.6079 137.052" stroke="#92E0FF" stroke-width="2" stroke-miterlimit="10" stroke-linecap="round"></path>
    <path d="M61.3466 132.973C61.3466 132.973 70.2841 128.374 69.767 116.728" stroke="#92E0FF" stroke-width="2" stroke-miterlimit="10" stroke-linecap="round"></path>
    <path d="M66.6648 136.236C66.6648 136.236 73.9773 131.637 75.0853 123.849C76.1932 116.06 72.8693 110.052 76.2671 108.569C79.4432 107.753 82.0284 112.648 82.4716 115.838" stroke="#92E0FF" stroke-width="2" stroke-miterlimit="10" stroke-linecap="round"></path>
    <path d="M140.528 124.591H112.017C110.466 124.591 109.284 125.852 109.284 127.335V141.725C109.284 147.288 113.79 151.813 119.33 151.813H133.29C138.83 151.813 143.335 147.288 143.335 141.725V127.335C143.261 125.852 142.006 124.591 140.528 124.591ZM128.193 138.907V143.135C128.193 143.654 127.75 144.173 127.159 144.173H125.756C125.239 144.173 124.722 143.728 124.722 143.135V138.907C123.318 138.165 122.432 136.533 122.875 134.753C123.17 133.418 124.278 132.379 125.534 132.082C127.972 131.563 130.04 133.343 130.04 135.643C130.187 137.052 129.375 138.239 128.193 138.907Z" fill="#415691"></path>
    <path d="M132.847 151.887H118.886C113.347 151.887 108.841 147.363 108.841 141.799V127.409C108.841 125.852 110.097 124.665 111.574 124.665H140.011C141.563 124.665 142.744 125.926 142.744 127.409V141.799C142.892 147.363 138.386 151.887 132.847 151.887Z" stroke="#92E0FF" stroke-width="2" stroke-miterlimit="10"></path>
  </g>
  <defs>
    <clipPath id="clip0_662_9606">
      <rect width="104" height="108" fill="white" transform="translate(40 45)"></rect>
    </clipPath>
  </defs>
</svg>
