<?xml version="1.0" encoding="UTF-8"?>
<svg xmlns="http://www.w3.org/2000/svg" width="200" height="186" viewBox="0 0 200 186" fill="none">
  <path opacity="0.9" d="M0.5 59.2211C0.5 52.9813 6.99912 48.8682 12.6384 51.5392L27.6384 58.6436C30.6072 60.0497 32.5 63.0406 32.5 66.3255V95.7789C32.5 102.019 26.0009 106.132 20.3616 103.461L5.36161 96.3564C2.39282 94.9503 0.5 91.9594 0.5 88.6745V59.2211Z" stroke="#92E0FF" stroke-opacity="0.4"></path>
  <path opacity="0.2" d="M17 14.3149C17 7.68486 23.9256 3.33063 29.9006 6.20411L67.9006 24.4789C71.0178 25.978 73 29.1308 73 32.5897V97.6851C73 104.315 66.0744 108.669 60.0994 105.796L22.0994 87.5211C18.9822 86.022 17 82.8691 17 79.4103V14.3149Z" fill="#9618B7"></path>
  <path opacity="0.4" d="M111 88.3149C111 81.6849 117.926 77.3306 123.901 80.2041L161.901 98.4789C165.018 99.978 167 103.131 167 106.59V171.685C167 178.315 160.074 182.669 154.099 179.796L116.099 161.521C112.982 160.022 111 156.869 111 153.41V88.3149Z" fill="#300853"></path>
  <path opacity="0.3" d="M153.5 78.249C153.5 72.0027 160.012 67.8898 165.652 70.5735L194.652 84.3717C197.613 85.7807 199.5 88.7677 199.5 92.0472V142.751C199.5 148.997 192.988 153.11 187.348 150.426L158.348 136.628C155.387 135.219 153.5 132.232 153.5 128.953V78.249Z" stroke="#92E0FF"></path>
  <g clip-path="url(#clip0_662_9608)">
    <path d="M38.138 164.851C36.7372 163.443 36.7372 161.22 38.138 159.812L52.8096 145.067C54.2104 143.659 56.4222 143.659 57.823 145.067C59.2238 146.475 59.2238 148.698 57.823 150.105L43.1514 164.851C41.7506 166.185 39.5388 166.185 38.138 164.851Z" fill="#415691"></path>
    <path d="M87.9035 124.319L84.4384 114.76L75.9598 117.354L72.126 115.131L68.8821 124.541" fill="#415691"></path>
    <path d="M101.027 116.761H103.017C104.271 116.761 105.229 115.798 105.229 114.538V104.164C108.031 102.682 109.948 99.7182 109.948 96.3097C109.948 91.1228 105.45 86.9732 100.142 87.566C96.0871 88.0106 92.7694 91.3451 92.4007 95.4946C92.0321 99.2736 94.0227 102.608 97.1192 104.164V109.647C97.1192 109.647 99.9946 112.908 101.027 116.761Z" fill="#415691"></path>
    <path d="M87.9773 146.623C91.295 149.068 94.3915 150.846 96.8245 152.18C98.1516 152.921 99.6998 153.292 101.174 153.292C102.723 153.292 104.197 152.921 105.524 152.18C113.634 147.882 128.601 137.805 137.595 118.613C138.775 116.168 139.733 113.575 140.618 111.055C141.576 108.24 142.387 105.276 143.051 102.238C144.083 97.1989 144.747 91.8638 144.894 86.3805C144.968 83.9352 143.715 81.6382 141.724 80.3785L106.04 58.5193C104.566 57.6301 102.87 57.1115 101.174 57.1115C99.4786 57.1115 97.7829 57.556 96.3084 58.5193L60.6247 80.3785C58.6341 81.6382 57.3808 83.9352 57.4545 86.3805C57.602 91.8638 58.1918 97.1248 59.2977 102.238C59.74 104.386 60.3298 106.535 60.9196 108.61M94.7601 142.844C96.7507 144.103 98.5202 145.215 100.068 146.03C100.806 146.401 101.617 146.401 102.354 146.03C109.727 142.103 123.292 132.989 131.402 115.65C132.434 113.427 133.393 111.129 134.13 108.758C135.015 106.165 135.752 103.497 136.342 100.756C137.3 96.1615 137.89 91.271 138.038 86.2323L102.428 64.4472C102.059 64.2249 101.617 64.0767 101.174 64.0767C100.732 64.0767 100.29 64.2249 99.921 64.4472L64.3848 86.2323C64.5322 91.271 65.0483 96.0874 66.0805 100.756C66.3017 101.793 66.5229 102.83 66.8178 103.794" stroke="#92E0FF" stroke-width="2" stroke-miterlimit="10"></path>
    <path d="M38.138 164.851C36.7372 163.443 36.7372 161.22 38.138 159.812L52.8096 145.067C54.2104 143.659 56.4222 143.659 57.823 145.067C59.2238 146.475 59.2238 148.698 57.823 150.105L43.1514 164.851C41.7506 166.259 39.5388 166.259 38.138 164.851Z" stroke="#92E0FF" stroke-width="2" stroke-miterlimit="10"></path>
    <path d="M78.4666 142.77C88.4832 142.77 96.6033 134.609 96.6033 124.541C96.6033 114.474 88.4832 106.313 78.4666 106.313C68.4499 106.313 60.3298 114.474 60.3298 124.541C60.3298 134.609 68.4499 142.77 78.4666 142.77Z" stroke="#92E0FF" stroke-width="2" stroke-miterlimit="10"></path>
    <path d="M78.5402 148.475C91.6515 148.475 102.28 137.793 102.28 124.615C102.28 111.438 91.6515 100.756 78.5402 100.756C65.429 100.756 54.8003 111.438 54.8003 124.615C54.8003 137.793 65.429 148.475 78.5402 148.475Z" stroke="#92E0FF" stroke-width="2" stroke-miterlimit="10"></path>
    <path d="M61.7305 141.436L58.1917 145.067" stroke="#92E0FF" stroke-width="3" stroke-miterlimit="10"></path>
    <path d="M52.4409 145.437L57.4543 150.476" stroke="#92E0FF" stroke-width="2" stroke-miterlimit="10"></path>
    <path d="M90.3364 124.615H66.5964" stroke="#92E0FF" stroke-width="2" stroke-miterlimit="10"></path>
    <path d="M88.051 124.319L84.5858 114.76L76.0336 117.354L72.2735 115.131L68.9558 124.541" stroke="#92E0FF" stroke-width="2" stroke-miterlimit="10"></path>
    <path d="M84.4383 131.729C86.3928 131.729 87.9772 130.137 87.9772 128.172C87.9772 126.208 86.3928 124.615 84.4383 124.615C82.4838 124.615 80.8994 126.208 80.8994 128.172C80.8994 130.137 82.4838 131.729 84.4383 131.729Z" stroke="#92E0FF" stroke-width="2" stroke-miterlimit="10"></path>
    <path d="M72.4947 131.729C74.4492 131.729 76.0336 130.137 76.0336 128.172C76.0336 126.208 74.4492 124.615 72.4947 124.615C70.5402 124.615 68.9558 126.208 68.9558 128.172C68.9558 130.137 70.5402 131.729 72.4947 131.729Z" stroke="#92E0FF" stroke-width="2" stroke-miterlimit="10"></path>
    <path d="M80.7519 128.172H76.0334" stroke="#92E0FF" stroke-width="2" stroke-miterlimit="10"></path>
    <path d="M101.027 116.761H103.017C104.271 116.761 105.229 115.798 105.229 114.538V104.164C108.031 102.682 109.948 99.7182 109.948 96.3097C109.948 91.1228 105.45 86.9732 100.142 87.566C96.0871 88.0106 92.7694 91.3451 92.4007 95.4946C92.0321 99.2736 94.0227 102.608 97.1192 104.164V109.647C97.1192 109.647 99.9946 112.908 101.027 116.761Z" stroke="#92E0FF" stroke-width="2" stroke-miterlimit="10"></path>
  </g>
  <defs>
    <clipPath id="clip0_662_9608">
      <rect width="110" height="111" fill="white" transform="translate(36 56)"></rect>
    </clipPath>
  </defs>
</svg>
