<?xml version="1.0" encoding="UTF-8"?>
<svg xmlns="http://www.w3.org/2000/svg" width="207" height="186" viewBox="0 0 207 186" fill="none">
  <path opacity="0.2" d="M28 14.2063C28 7.60315 34.8744 3.24803 40.8448 6.06888L79.8448 24.4956C82.9923 25.9827 85 29.1518 85 32.633V97.7937C85 104.397 78.1256 108.752 72.1552 105.931L33.1552 87.5044C30.0077 86.0173 28 82.8482 28 79.367V14.2063Z" fill="#9618B7"></path>
  <path opacity="0.4" d="M122 88.2063C122 81.6032 128.874 77.248 134.845 80.0689L173.845 98.4956C176.992 99.9827 179 103.152 179 106.633V171.794C179 178.397 172.126 182.752 166.155 179.931L127.155 161.504C124.008 160.017 122 156.848 122 153.367V88.2063Z" fill="#300853"></path>
  <path opacity="0.3" d="M159.5 60.1218C159.5 53.9054 165.955 49.7917 171.59 52.4169L201.59 66.3936C204.585 67.789 206.5 70.794 206.5 74.0984V124.878C206.5 131.095 200.045 135.208 194.41 132.583L164.41 118.606C161.415 117.211 159.5 114.206 159.5 110.902V60.1218Z" stroke="#92E0FF"></path>
  <path opacity="0.9" d="M0.5 59.2211C0.5 52.9813 6.99912 48.8682 12.6384 51.5392L27.6384 58.6436C30.6072 60.0497 32.5 63.0406 32.5 66.3255V95.7789C32.5 102.019 26.0009 106.132 20.3616 103.461L5.36161 96.3564C2.39282 94.9503 0.5 91.9594 0.5 88.6745V59.2211Z" stroke="#92E0FF" stroke-opacity="0.4"></path>
  <g clip-path="url(#clip0_662_9609)">
    <path d="M156.27 128.44V117.76C156.27 110.71 150.58 104.93 143.49 104.93C136.47 104.93 130.71 110.64 130.71 117.76V128.44" stroke="#92E0FF" stroke-width="2" stroke-miterlimit="10"></path>
    <path d="M137.14 128.44V117.54C137.14 113.98 140.02 111.16 143.49 111.16C147.04 111.16 149.84 114.05 149.84 117.54V128.52" stroke="#92E0FF" stroke-width="2" stroke-miterlimit="10"></path>
    <path d="M158.19 128.44H129.68C128.13 128.44 126.95 129.7 126.95 131.18V145.57C126.95 151.13 131.46 155.66 137 155.66H150.96C156.5 155.66 161.01 151.13 161.01 145.57V131.19C160.92 129.71 159.67 128.44 158.19 128.44ZM145.85 142.76V146.99C145.85 147.51 145.41 148.03 144.82 148.03H143.42C142.9 148.03 142.39 147.59 142.39 146.99V142.76C140.99 142.02 140.1 140.39 140.54 138.61C140.84 137.27 141.94 136.24 143.2 135.94C145.64 135.42 147.71 137.2 147.71 139.5C147.85 140.91 147.03 142.09 145.85 142.76Z" fill="#415691"></path>
    <path d="M150.51 155.74H136.55C131.01 155.74 126.5 151.22 126.5 145.65V131.26C126.5 129.7 127.76 128.52 129.23 128.52H157.67C159.22 128.52 160.4 129.78 160.4 131.26V145.65C160.55 151.22 156.05 155.74 150.51 155.74Z" stroke="#92E0FF" stroke-width="2" stroke-miterlimit="10"></path>
    <path d="M129.11 152.41H44.92C42.75 152.41 41 150.66 41 148.49V65.92C41 63.75 42.75 62 44.92 62H141.09C143.25 62 145.01 63.75 145.01 65.92V104.93" stroke="#92E0FF" stroke-width="2" stroke-miterlimit="10"></path>
    <path d="M41 73.4H145" stroke="#92E0FF" stroke-width="2" stroke-miterlimit="10"></path>
    <path d="M46.8299 69.41C47.7357 69.41 48.4699 68.6758 48.4699 67.77C48.4699 66.8643 47.7357 66.13 46.8299 66.13C45.9242 66.13 45.1899 66.8643 45.1899 67.77C45.1899 68.6758 45.9242 69.41 46.8299 69.41Z" fill="#92E0FF"></path>
    <path d="M51.62 69.41C52.5257 69.41 53.26 68.6758 53.26 67.77C53.26 66.8643 52.5257 66.13 51.62 66.13C50.7142 66.13 49.98 66.8643 49.98 67.77C49.98 68.6758 50.7142 69.41 51.62 69.41Z" fill="#92E0FF"></path>
    <path d="M56.4 69.41C57.3058 69.41 58.04 68.6758 58.04 67.77C58.04 66.8643 57.3058 66.13 56.4 66.13C55.4943 66.13 54.76 66.8643 54.76 67.77C54.76 68.6758 55.4943 69.41 56.4 69.41Z" fill="#92E0FF"></path>
    <path d="M75.36 129.58L60.66 116.45L75.36 104.04" stroke="#92E0FF" stroke-width="2" stroke-miterlimit="10" stroke-linecap="round" stroke-linejoin="round"></path>
    <path d="M103.52 104.04L118.22 117.17L103.52 129.58" stroke="#92E0FF" stroke-width="2" stroke-miterlimit="10" stroke-linecap="round" stroke-linejoin="round"></path>
    <path d="M93.31 94.52L84.15 138.86" stroke="#92E0FF" stroke-width="2" stroke-miterlimit="10" stroke-linecap="round" stroke-linejoin="round"></path>
  </g>
  <defs>
    <clipPath id="clip0_662_9609">
      <rect width="121.41" height="95.74" fill="white" transform="translate(40 61)"></rect>
    </clipPath>
  </defs>
</svg>
